<svg xmlns="http://www.w3.org/2000/svg" xmlns:xlink="http://www.w3.org/1999/xlink" width="834.907" height="1005.966" viewBox="0 0 834.907 1005.966">
  <defs>
    <linearGradient id="linear-gradient" x1="0.55" y1="-0.027" x2="0.5" y2="1" gradientUnits="objectBoundingBox">
      <stop offset="0" stop-color="#f0bb0c" stop-opacity="0.902"/>
      <stop offset="0.256" stop-color="#fccd24" stop-opacity="0.8"/>
      <stop offset="0.582" stop-color="#fdd74f" stop-opacity="0.4"/>
      <stop offset="1" stop-color="#fff" stop-opacity="0"/>
    </linearGradient>
    <linearGradient id="linear-gradient-2" x1="0.708" y1="0.07" x2="0.342" y2="0.86" gradientUnits="objectBoundingBox">
      <stop offset="0" stop-color="#364fc7"/>
      <stop offset="0.453" stop-color="#405fe4"/>
      <stop offset="1" stop-color="#849cfc"/>
    </linearGradient>
    <linearGradient id="linear-gradient-3" x1="0.331" y1="0.187" x2="0.904" y2="0.657" gradientUnits="objectBoundingBox">
      <stop offset="0" stop-color="#3849c9"/>
      <stop offset="1" stop-color="#7084f5"/>
    </linearGradient>
    <linearGradient id="linear-gradient-4" x1="1.173" y1="0.309" x2="0.08" y2="0.659" gradientUnits="objectBoundingBox">
      <stop offset="0" stop-color="#bfc3c6"/>
      <stop offset="1" stop-color="#f2f0f0"/>
    </linearGradient>
    <linearGradient id="linear-gradient-5" x1="1" y1="0.85" x2="0.183" y2="0.197" gradientUnits="objectBoundingBox">
      <stop offset="0" stop-color="#eaeaea"/>
      <stop offset="1" stop-color="#e3e3e3"/>
    </linearGradient>
    <linearGradient id="linear-gradient-6" x1="1" y1="0.567" x2="0.169" y2="0.586" gradientUnits="objectBoundingBox">
      <stop offset="0" stop-color="#495057"/>
      <stop offset="1" stop-color="#343a40"/>
    </linearGradient>
    <linearGradient id="linear-gradient-7" x1="-0.389" y1="0.166" x2="0.728" y2="0.437" gradientUnits="objectBoundingBox">
      <stop offset="0" stop-color="#868e96"/>
      <stop offset="1" stop-color="#343a40"/>
    </linearGradient>
    <linearGradient id="linear-gradient-8" x1="0.255" y1="0.271" x2="0.906" y2="0.973" gradientUnits="objectBoundingBox">
      <stop offset="0" stop-color="#edf2ff"/>
      <stop offset="0.422" stop-color="#fff"/>
      <stop offset="1" stop-color="#dbe4ff"/>
    </linearGradient>
    <linearGradient id="linear-gradient-9" x1="0.738" y1="0.361" x2="0" y2="1.173" gradientUnits="objectBoundingBox">
      <stop offset="0" stop-color="#ffd8a8"/>
      <stop offset="0.421" stop-color="#ffe8cc"/>
      <stop offset="1" stop-color="#ffd8a8"/>
    </linearGradient>
    <linearGradient id="linear-gradient-10" x1="0.95" y1="0.008" x2="-0.029" y2="0.973" gradientUnits="objectBoundingBox">
      <stop offset="0" stop-color="#dfe2ea"/>
      <stop offset="0.157" stop-color="#edf1fd"/>
      <stop offset="0.772" stop-color="#f7f7f7"/>
      <stop offset="1" stop-color="#f4f4f4"/>
    </linearGradient>
    <linearGradient id="linear-gradient-11" x1="0.076" y1="0.045" x2="0.849" y2="0.692" gradientUnits="objectBoundingBox">
      <stop offset="0" stop-color="#fff"/>
      <stop offset="1" stop-color="#f1f3f5"/>
    </linearGradient>
    <linearGradient id="linear-gradient-12" x1="-0.117" y1="0.5" x2="1.802" y2="0.5" gradientUnits="objectBoundingBox">
      <stop offset="0" stop-color="#dbe4ff"/>
      <stop offset="1" stop-color="#748ffc"/>
    </linearGradient>
    <linearGradient id="linear-gradient-13" x1="0.5" y1="0.143" x2="0.624" y2="0.611" gradientUnits="objectBoundingBox">
      <stop offset="0" stop-color="#ffd8a8"/>
      <stop offset="1" stop-color="#ffe8cc"/>
    </linearGradient>
    <linearGradient id="linear-gradient-14" x1="0.825" y1="0.159" x2="0.588" y2="0.568" gradientUnits="objectBoundingBox">
      <stop offset="0" stop-color="#f1f3f5"/>
      <stop offset="1" stop-color="#dbe4ff"/>
    </linearGradient>
    <linearGradient id="linear-gradient-15" x1="0.682" y1="-0.087" x2="0.728" y2="0.56" gradientUnits="objectBoundingBox">
      <stop offset="0" stop-color="#dbe4ff"/>
      <stop offset="1" stop-color="#e9eaf2"/>
    </linearGradient>
    <linearGradient id="linear-gradient-16" x1="0.656" y1="0.17" x2="0.053" y2="0.95" gradientUnits="objectBoundingBox">
      <stop offset="0" stop-color="#edf2ff"/>
      <stop offset="1" stop-color="#ced4da"/>
    </linearGradient>
    <linearGradient id="linear-gradient-17" x1="0.713" y1="0.338" x2="0.269" y2="0.943" gradientUnits="objectBoundingBox">
      <stop offset="0" stop-color="#5c7cfa"/>
      <stop offset="1" stop-color="#364fc7"/>
    </linearGradient>
    <linearGradient id="linear-gradient-18" x1="0.863" y1="0.297" x2="0.293" y2="0.566" xlink:href="#linear-gradient-17"/>
    <linearGradient id="linear-gradient-19" x1="0.277" y1="0.229" x2="0.406" y2="0.811" gradientUnits="objectBoundingBox">
      <stop offset="0" stop-color="#fcebd7"/>
      <stop offset="1" stop-color="#ffe8cc"/>
    </linearGradient>
    <linearGradient id="linear-gradient-20" x1="0.127" y1="0.378" x2="0.847" y2="0.5" gradientUnits="objectBoundingBox">
      <stop offset="0" stop-color="#868e96"/>
      <stop offset="1" stop-color="#495057"/>
    </linearGradient>
    <linearGradient id="linear-gradient-21" x1="0.89" y1="0.5" x2="-0.084" y2="0.378" gradientUnits="objectBoundingBox">
      <stop offset="0" stop-color="#353c42"/>
      <stop offset="1" stop-color="#868e96"/>
    </linearGradient>
    <linearGradient id="linear-gradient-22" x1="0.335" y1="0.123" x2="0.738" y2="0.731" xlink:href="#linear-gradient-6"/>
    <linearGradient id="linear-gradient-23" x1="0.24" y1="0" x2="0.826" y2="0.878" xlink:href="#linear-gradient-20"/>
    <linearGradient id="linear-gradient-24" x1="0.5" y1="0.629" x2="0.333" y2="-0.125" gradientUnits="objectBoundingBox">
      <stop offset="0" stop-color="#495057"/>
      <stop offset="1" stop-color="#868e96"/>
    </linearGradient>
    <linearGradient id="linear-gradient-25" x1="0.5" y1="0.575" x2="0.901" y2="0.29" gradientUnits="objectBoundingBox">
      <stop offset="0" stop-color="#ffe8cc"/>
      <stop offset="1" stop-color="#ffd8a8"/>
    </linearGradient>
    <linearGradient id="linear-gradient-26" x1="0.5" y1="0.103" x2="0.702" y2="0.757" gradientUnits="objectBoundingBox">
      <stop offset="0" stop-color="#f1f3f5"/>
      <stop offset="1" stop-color="#edf2ff"/>
    </linearGradient>
    <linearGradient id="linear-gradient-27" x1="0.813" y1="0.401" x2="0.365" y2="0.9" gradientUnits="objectBoundingBox">
      <stop offset="0" stop-color="#dbe4ff"/>
      <stop offset="1" stop-color="#fff"/>
    </linearGradient>
    <linearGradient id="linear-gradient-28" x1="0.788" y1="0.175" x2="0.551" y2="0.902" gradientUnits="objectBoundingBox">
      <stop offset="0" stop-color="#394aca"/>
      <stop offset="1" stop-color="#5c7cfa"/>
    </linearGradient>
    <linearGradient id="linear-gradient-29" x1="0.675" y1="0.657" x2="0.276" y2="0.249" gradientUnits="objectBoundingBox">
      <stop offset="0" stop-color="#b9d5ff"/>
      <stop offset="1" stop-color="#d0d9ff"/>
    </linearGradient>
    <linearGradient id="linear-gradient-30" x1="0.337" y1="0.129" x2="1" y2="0.642" gradientUnits="objectBoundingBox">
      <stop offset="0" stop-color="#b5d1f6"/>
      <stop offset="1" stop-color="#a1b4eb"/>
    </linearGradient>
    <linearGradient id="linear-gradient-31" x1="0.788" y1="0.657" x2="-0.164" y2="0.27" gradientUnits="objectBoundingBox">
      <stop offset="0" stop-color="#94a6ea"/>
      <stop offset="1" stop-color="#b7dcfa"/>
    </linearGradient>
    <linearGradient id="linear-gradient-32" x1="0.635" y1="0.733" x2="0.122" y2="0.286" gradientUnits="objectBoundingBox">
      <stop offset="0" stop-color="#8da5f5"/>
      <stop offset="1" stop-color="#e2e8f8"/>
    </linearGradient>
    <linearGradient id="linear-gradient-33" x1="0.099" y1="0.08" x2="0.902" y2="0.5" gradientUnits="objectBoundingBox">
      <stop offset="0" stop-color="#e6f0ff"/>
      <stop offset="1" stop-color="#aebff2"/>
    </linearGradient>
    <linearGradient id="linear-gradient-34" x1="0.068" y1="0.191" x2="0.907" y2="0.622" gradientUnits="objectBoundingBox">
      <stop offset="0" stop-color="#bac8ff"/>
      <stop offset="1" stop-color="#749efc"/>
    </linearGradient>
    <linearGradient id="linear-gradient-35" x1="0.637" y1="0.677" x2="0.102" y2="0.169" gradientUnits="objectBoundingBox">
      <stop offset="0" stop-color="#88a1ef"/>
      <stop offset="1" stop-color="#edf2ff"/>
    </linearGradient>
    <linearGradient id="linear-gradient-36" x1="0.099" y1="0.08" x2="1" y2="0.58" gradientUnits="objectBoundingBox">
      <stop offset="0" stop-color="#e6f0ff"/>
      <stop offset="1" stop-color="#96b2ff"/>
    </linearGradient>
    <linearGradient id="linear-gradient-37" x1="1" y1="0.682" x2="-0.08" y2="0.256" gradientUnits="objectBoundingBox">
      <stop offset="0" stop-color="#4c6ef5"/>
      <stop offset="1" stop-color="#dbe4ff"/>
    </linearGradient>
  </defs>
  <g id="그룹_13" data-name="그룹 13" transform="translate(4338.413 -1003.731)">
    <g id="그룹_9" data-name="그룹 9">
      <path id="패스_210" data-name="패스 210" d="M-4320.113,1781.551c-24.753-40.839-22.74-110.436-3.86-148.945,60.706-123.818,128.693-60.43,180.756-87.428s33.519-88.6,109.95-103.994,40.812,59.93,110.123,59.656,87.064-89.009,167.121-60.751,13.695,86.948,71.057,107.525,105.668-50.633,148.812-24.123,34.647,91.732,24.193,133.388c-22.712,90.494-113.9,169.383-160.528,209.87-125.6,109.049-294.635,101.839-369.458,96.852S-4265.2,1872.146-4320.113,1781.551Z" fill="url(#linear-gradient)"/>
      <path id="패스_208" data-name="패스 208" d="M-3705.987,1185.012l-15.118,43.247c-3.78,10.812-6.469,42.37-4.753,42.078s6.4-8.5,12.436-14.759c6.661-6.9,12.384-13.073,13.231-12.985.729.076-.6,7.549,0,14.754.639,7.7,3.247,15.215,4.922,14.065,3.13-2.151,13.693-17.439,19.176-31.575,2.479-6.389,10.548-24.579,12.691-35.9,2.479-13.094-.551-21.852-.551-21.852Z" fill="url(#linear-gradient-2)"/>
      <path id="패스_209" data-name="패스 209" d="M-3655.621,1188.544s4.219,4.993,13.434,15.2,14.994,15.557,22.067,26.232,9.78,17.706,9.78,17.706,2.873-5.119,2.221-14.2c-.29-4.045-1.018-7.4-1.194-9.856-.151-2.106-.092-1.61,2.753,1.005a27.409,27.409,0,0,1,5.448,7.956c1.622,3.564,1.906,7.144,2.542,9.55,3.993,5.718,6.287-15.684,3.406-29.95s-10.451-23.661-16.674-31.05S-3629,1166.754-3629,1166.754Z" fill="url(#linear-gradient-3)"/>
      <path id="패스_207" data-name="패스 207" d="M-4011.734,1936.71s-5.077,12.589-5.815,19.9-1.477,16.1-.974,22.785,3.384,16.407,4.52,20.889,6.858,9.926,10.822,9.372,5.208-1.01,9.085-8.066a87.489,87.489,0,0,0,7.514-19.219c1.694-5.922,2.418-32.01,2-48.97s-4.019-22.606-4.019-22.606Z" fill="url(#linear-gradient-4)"/>
      <path id="패스_206" data-name="패스 206" d="M-3904.97,1766.481a66.2,66.2,0,0,0-13.09,2.745c-4.962,1.625-12.045,4.947-12.485,7.466-.219,1.259,2.435,3.623,5.177,7.954,2.427,3.835,4.942,9.639,8.6,16.414,7.319,13.551,8.475,16.179,14.728,26.258,1.969,3.175,2.713,5.169,3.865,7.067,2,3.3,3.262,4.46,6.2,7.387,4.295,4.273,3.454,2.34,7.815,4.214s6.593,5.517,9.627,3.282,1.055-14.884,1.055-14.884-2.677-12.958-3.816-18.992-3.25-9.358-4.49-14.333-2.377-12.966-2.377-12.966Z" fill="url(#linear-gradient-5)"/>
      <path id="패스_205" data-name="패스 205" d="M-3952.394,1642.488s1.724,10.379,14.113,14.437c2.606.855,9.556-.25,13.183,0,8.564.589,19.738,5.757,27.4,5.116,8.734-.73,24.553-2.1,34.617,0,18.331,3.828,38.909,20.175,38.9,22.5s-2.071-1.577-11.709,6.8-13.838,14.462-23.3,26.872-10.839,21.387-19.9,29.323c-9.86,8.636-26.725,16.263-26.681,19.128s1.314,11.517,9.884,20.556,12.4,10.985,16.8,11.189,14.244-2.662,24.382-11.189,16.667-14.42,30.373-24.483c4.3-3.16,17.182-9.5,27.508-15.2,21.73-12.008,41.124-19.568,52.867-25.539,9.09-4.622,9.346-13.034,5.689-22.189-3.03-7.59-9.185-15.49-14.152-26.161-10.59-22.752-17.536-28.241-29.653-38.815-6.713-5.858-31.816-19.334-55.277-31.342-18.576-9.508-34.306-15.835-36.32-18.882s-.71-10.44-.71-10.44l-48.288-13.088Z" fill="url(#linear-gradient-6)"/>
      <path id="패스_204" data-name="패스 204" d="M-4019.742,1558.885s-19.512,28.488-25.509,74.33-3.324,64.568-4.749,109.685-2.934,67.5,5.771,117.935,29.9,83.812,29.9,83.812,9.408,2.839,16.986,0,13.325-11.355,13.325-11.355-3.224-23.994-3.13-42.369c.1-19.119,3.5-37.059,3.13-51.148-.721-27.2-4.673-46.2-3.13-55.649s17.825-48.806,32.355-86.534,21.6-48.667,33.84-79.958,11.3-30.724,15.115-45.207-6.178-37.227-6.178-37.227Z" fill="url(#linear-gradient-7)"/>
      <path id="패스_190" data-name="패스 190" d="M-3906.653,1399.682s-8.732-24.654-5.252-48.195,8.57-26.914,19.174-45.968c8.742-15.71,23.625-27.518,23.625-27.518l-9.123-22.8-14.5-9.893s-18.5,19.4-34.669,40.369-39.684,52.114-56.4,87.385c-9.914,20.915-32.608,87.037-43.689,137.491-7.546,34.357-13.386,62.095-5.881,61.374s31.075-16.63,69.979-15.049c20.347.827,46.612,5.074,64.363,10.953,15.68,5.193,23.671,12.191,26.17,10.419s-1.392-16.854,1.115-31.594a108.332,108.332,0,0,1,8.915-27.366s-1.975,7.143,0,17.249c2.267,11.6,9.131,27.43,17.159,39.7,14.676,22.44,33.427,34.43,38.619,34.8s7.879-8.955,14.575-21.86a121.493,121.493,0,0,0,9.157-25.588c1.6-7.931-31.767-23.123-31.506-42.311s-10.87-54.932-15.992-59.788-8.376-3.146-14.985-8.5c-2.029-1.644-10.313-15.977-18.579-23.213C-3882.369,1414.043-3906.653,1399.682-3906.653,1399.682Z" fill="url(#linear-gradient-8)"/>
      <path id="패스_196" data-name="패스 196" d="M-3906.994,1402.513a112.657,112.657,0,0,1,9.532-12.707,34.767,34.767,0,0,1,8.643-7.032l39.888,9.929s-7.175,9.446-13.157,18.852-5.444,20.846-5.444,20.846l-22.448,7.576-17.014-27.82Z" fill="url(#linear-gradient-9)"/>
      <g id="그룹_8" data-name="그룹 8">
        <path id="패스_216" data-name="패스 216" d="M2.886.778,296,0l5.615,4.568L296,132,5.665,136.551l-3.459-2.184L2.856,6.63Z" transform="translate(-3972.937 1121.582) rotate(-23)" fill="url(#linear-gradient-10)"/>
        <rect id="사각형_9" data-name="사각형 9" width="296" height="132" transform="translate(-3965.937 1123.582) rotate(-23)" fill="url(#linear-gradient-11)"/>
        <path id="빼기_1" data-name="빼기 1" d="M36.729,186.164,0,99.636,234.729,0l36.728,86.528L36.729,186.164ZM230.921,9.861h0L10,103.637l31.259,73.64L262.18,83.5,230.921,9.861Z" transform="translate(-3940.937 1035.945)" fill="url(#linear-gradient-12)"/>
      </g>
      <path id="패스_188" data-name="패스 188" d="M-3863.591,1230.579l16.692-16.649c4.173-4.162,8.39-4.9,9.425-7.019s1.053-13.147,5.509-17.416,8.042-8.456,14.15-7.717,7.28,1.024,11.839,7.717,4.164,11.163,3.865,15.625-6.655,11.582-8.441,14.23c-4.358,6.46-11.117,4.215-21.412,12.332s-17.885,20.157-17.885,20.157a46.03,46.03,0,0,0-5.105-12.578A32.923,32.923,0,0,0-3863.591,1230.579Z" fill="url(#linear-gradient-13)"/>
      <path id="패스_189" data-name="패스 189" d="M-3904.579,1247.972c.065-2.01,30.466-22.087,33.217-21.472s11.38,5.879,16.964,12.489,5.4,16.811,5.4,16.811-3.182,5.475-7.139,13.338c-4.408,8.759-8.946,18.424-9.932,18.783-3.027-13.592-6.269-18.149-15.658-28.455a35.811,35.811,0,0,0-15.6-9.885C-3901.508,1248.2-3904.61,1248.938-3904.579,1247.972Z" fill="url(#linear-gradient-14)"/>
      <path id="패스_192" data-name="패스 192" d="M-3923.2,1397.255c.934-1.681,4.119-.12,10.171-1.9s7.317-3.89,11.791-3.7-.315,7.673,1.722,15.737,5.937,14.308,4.777,16.409-10.917,5.588-17.371,10.753-7.213,13.366-9.152,10.274S-3924.132,1398.936-3923.2,1397.255Z" fill="url(#linear-gradient-15)"/>
      <path id="패스_193" data-name="패스 193" d="M-3884.219,1427.294c.294-1.763,15.618-6.3,16.63-6.265s2.975,6.375,3.966,8.5,7.123,6.666,6.9,8.043-10.24,6.973-14.823,9.947-6.465-2.794-9.632-7.85A20.366,20.366,0,0,1-3884.219,1427.294Z" fill="url(#linear-gradient-16)"/>
      <path id="패스_195" data-name="패스 195" d="M-3875.1,1443.623c2.829,1.955,1.908,6.627,11.568,12.929,8.443,5.509,24.286,10.83,33.781,8.379,19.74-5.1,30.733-37.6,32.277-41.066s21.225-11.859,22.758-9.6c.762,1.121.474,15.092,0,20.375s-5.524,16.574-7.556,21.335-8.267,15.956-23.653,21.388-42.87,3.255-52.194,1.795-17.526-6.7-22.882-12.1-13.006-23.432-13.006-23.432l7.111-7.988S-3877.928,1441.668-3875.1,1443.623Z" fill="url(#linear-gradient-17)"/>
      <path id="패스_194" data-name="패스 194" d="M-3894.525,1424.2s2.139,3.784,4.668,5.541a9.055,9.055,0,0,0,5.447,1.488l2.683,7.957s-7.475,8.949-8.921,10.185-4.808,1.89-8.308-.566-4.506-4.346-5.318-8.17a17.677,17.677,0,0,1,2.033-12.583C-3899.8,1423.947-3894.525,1424.2-3894.525,1424.2Z" fill="url(#linear-gradient-18)"/>
      <path id="패스_197" data-name="패스 197" d="M-3886.028,1341.728s-3.951,6.267-5.269,11.108-.686,15.413-.778,21.713,2.437,16.4,6.75,19.946,17.882,9.187,27.6,7.187c3.915-.806,12.193-1.986,16.422-2.988,7.923-.767,15.167-3.382,20.7-4.2,9.265-1.368,15.687-10.441,16.14-14.539s-5.595-7.83-10.125-7.506-10.827,13.142-10.848,11.814,3.8-9.454,6.029-14.109,2.587-6.038,4.819-8.967-7.118-1.11-9.35-1.11-.225-12.887,0-18.349c.1-2.534-3.366-3.862-9.106-2.454-6.04,1.482-14.859,5.866-21.36,4.3-12.129-2.926-18.05-13.547-18.05-13.547l-11.971,7.072-1.6,4.632" fill="url(#linear-gradient-19)"/>
      <path id="패스_198" data-name="패스 198" d="M-3818.378,1360.156l-6.715,11.563c-1.679,2.891-2.7,11.978-2.7,11.978s.344,3.844,2.7,2.336,4.635-6.265,6.715-8.367,8.26-2.07,10.81-.91,2.732,2.083,5.284.91,6.743-5.325,6.743-5.325Z" fill="url(#linear-gradient-20)"/>
      <path id="패스_199" data-name="패스 199" d="M-3840.692,1351.3c2.58.495,4.645-7.466,7.212-9.065s6.421-3,8.063-1.084,0,8.7,0,12.074-1.1,8.411,3.251,9.057,16.827-6.12,16.827-6.12l.74-25.465-27.285-11.328-12.437,20.326S-3843.273,1350.805-3840.692,1351.3Z" fill="url(#linear-gradient-21)"/>
      <path id="패스_200" data-name="패스 200" d="M-3886.78,1345.805c2.551.188,2.555-4.455,7.243-6.549s5.733-1.738,8.363-1.884c4.9-.273,12.181,7.61,15.193,10.128s14.072,2.1,14.072,2.1l4.714-11.08c1.178-2.77,7.283-7.207,9.711-9.609s7.588,0,10.118,0,3.256,7.207,4.341,9.609c.52,1.151.108,8.326-2.429,13.017-2.476,4.579-8.391,2.207-7.285,7.211s5.511,2.309,11.768,5.85,12.006,9.877,15.011,9.008,12.013-13.224,12.921-19.822a43.827,43.827,0,0,0-4.945-25.724c-4.956-9.1-7.959-11.011-12.473-12.651s-10.038.826-15-4.291-1.569-6.782-9.359-10.593-16.03-5.41-28.6-3.3-14.378,6.289-22.928,13.891-11.9,10.163-12.235,13.557S-3889.331,1345.617-3886.78,1345.805Z" fill="url(#linear-gradient-22)"/>
      <path id="패스_201" data-name="패스 201" d="M-3848.794,1358.518c.636.886.5.623,2.877,1.03s3.643-.467,7.088.781,3.739,2.525,6.8,4.411,3.713,2.911,5.441,3.131,1.5-1.115,0-3.131-3.983-3.331-5.851-4.785a37.68,37.68,0,0,0-6.389-3.4c-1.9-.945-7.908-.433-8.944,0S-3849.43,1357.632-3848.794,1358.518Z" fill="url(#linear-gradient-23)"/>
      <path id="패스_202" data-name="패스 202" d="M-3883.607,1343.5a56.12,56.12,0,0,1,6.576,1.968,38.588,38.588,0,0,1,6.479,2.892c2.956,2,6.3,4.074,7.305,3.649,1.567-.661.377-2.437-1.246-3.649s-5.912-3.913-8.095-5.4-5.4-2.025-7.4-2.808-2.989-.363-3.986.594A1.66,1.66,0,0,0-3883.607,1343.5Z" fill="url(#linear-gradient-24)"/>
      <path id="패스_203" data-name="패스 203" d="M-3788.179,1510.874l3.521-6.865c.88-1.716.664-4.76,0-6.405s-3.159-3.117-6.993-5.176-7.432-1.944-9.641-5.465-3.993-6.232-2.276-10.083c1.136-2.555,4.692-5.166,7.524-6.366,6.42-2.721,9.352-6.108,11.387-9.761s16.961,2.761,21.6,10.938.546,13.367.95,20.737,1.41,7.865,1.41,11.581-.2,7.377-3.284,14.289-9.746,13.359-9.746,13.359Z" fill="url(#linear-gradient-25)"/>
      <path id="패스_191" data-name="패스 191" d="M-3812.126,1531.3c-.1-4.27,17.7-21.8,21.1-21.92s4.479,3.287,9.621,8.719c4.7,4.969,11.276,10.735,11.54,12.227.53,3-2.673,4-7.668,13.848s-4.172,24.272-5.732,25.4-10.811-9.925-15.885-15.4S-3812.025,1535.565-3812.126,1531.3Z" fill="url(#linear-gradient-26)"/>
      <circle id="타원_5" data-name="타원 5" cx="45" cy="45" r="45" transform="translate(-3723 1086)" fill="url(#linear-gradient-27)"/>
      <path id="패스_214" data-name="패스 214" d="M-3894.525,1309.313s-5.109,9.834-7.131,14.825-10.036,11.33-16.691,16.528-25.273,13.367-32.727,42.828-17.894,46.625-7.974,84.418,41.314,69.965,43.052,76.52-18.247-13.7-30.539-25.884-17.181-23.206-18.631-22.855,6.118,20.252,6.118,20.252,14.515,37,12.513,38.559-10.993-12.772-20.521-32.309a159.039,159.039,0,0,1-15.927-67.475c-.9-57.582,26.656-125.333,31.161-129.843s10.614-6.691,21.071-8.181,12.354.965,21.032-.7A40.188,40.188,0,0,0-3894.525,1309.313Z" fill="#5e76fa" opacity="0.1"/>
      <path id="빼기_2" data-name="빼기 2" d="M65,130a64.7,64.7,0,0,1-36.342-11.1A65.19,65.19,0,0,1,5.108,90.3,64.914,64.914,0,0,1,11.1,28.658,65.19,65.19,0,0,1,39.7,5.108,64.914,64.914,0,0,1,101.342,11.1a65.19,65.19,0,0,1,23.55,28.6,64.914,64.914,0,0,1-5.993,61.643,65.19,65.19,0,0,1-28.6,23.55A64.593,64.593,0,0,1,65,130ZM65,20a44.859,44.859,0,1,0,17.516,3.536A44.718,44.718,0,0,0,65,20Z" transform="translate(-3743 1066)" fill="url(#linear-gradient-28)"/>
      <path id="패스_215" data-name="패스 215" d="M-3719.239,1090s43.01-.156,61.206,22.092,15.7,62.206,15.7,62.206l16.121-30.843-.109-32.086-22.139-25.37-24.266-8.317Z" transform="matrix(0.978, 0.208, -0.208, 0.978, 158.34, 790.117)" fill="#4c6ef5" opacity="0.2"/>
    </g>
    <g id="그룹_10" data-name="그룹 10" transform="translate(14 3)">
      <path id="패스_219" data-name="패스 219" d="M-4063.726,1229.445l40.888,22.558-40.888,31.694L-4103.177,1252Z" fill="url(#linear-gradient-29)"/>
      <path id="패스_217" data-name="패스 217" d="M-4102.9,1252.425l39.169,22.708v45.877l-39.169-22.143Z" fill="url(#linear-gradient-30)"/>
      <path id="패스_218" data-name="패스 218" d="M-4062.1,1252.425l-40.8,22.708v45.877l40.8-22.143Z" transform="translate(39.169)" fill="url(#linear-gradient-31)"/>
    </g>
    <g id="그룹_12" data-name="그룹 12" transform="translate(370 95)">
      <path id="패스_219-2" data-name="패스 219" d="M-4063.726,1229.445l40.888,22.558-40.888,31.694L-4103.177,1252Z" fill="url(#linear-gradient-32)"/>
      <path id="패스_217-2" data-name="패스 217" d="M-4102.9,1252.425l39.169,22.708v45.877l-39.169-22.143Z" fill="url(#linear-gradient-33)"/>
      <path id="패스_218-2" data-name="패스 218" d="M-4062.1,1252.425l-40.8,22.708v45.877l40.8-22.143Z" transform="translate(39.169)" fill="url(#linear-gradient-34)"/>
    </g>
    <g id="그룹_11" data-name="그룹 11" transform="translate(-26 118)">
      <path id="패스_219-3" data-name="패스 219" d="M-4063.726,1229.445l40.821,22.97-40.821,31.281L-4103.177,1252Z" fill="url(#linear-gradient-35)"/>
      <path id="패스_217-3" data-name="패스 217" d="M-4102.9,1252.425l39.169,22.708v45.877l-39.169-22.143Z" fill="url(#linear-gradient-36)"/>
      <path id="패스_218-3" data-name="패스 218" d="M-4062.1,1252.425l-40.8,22.708v45.877l40.8-22.143Z" transform="translate(39.169)" fill="url(#linear-gradient-37)"/>
    </g>
  </g>
</svg>
